<svg width="18" height="18" viewBox="0 0 18 18" fill="none" xmlns="http://www.w3.org/2000/svg">
<path d="M0 6.4C0 4.15979 0 3.03969 0.435974 2.18404C0.819467 1.43139 1.43139 0.819467 2.18404 0.435974C3.03969 0 4.15979 0 6.4 0H11.6C13.8402 0 14.9603 0 15.816 0.435974C16.5686 0.819467 17.1805 1.43139 17.564 2.18404C18 3.03969 18 4.15979 18 6.4V11.6C18 13.8402 18 14.9603 17.564 15.816C17.1805 16.5686 16.5686 17.1805 15.816 17.564C14.9603 18 13.8402 18 11.6 18H6.4C4.15979 18 3.03969 18 2.18404 17.564C1.43139 17.1805 0.819467 16.5686 0.435974 15.816C0 14.9603 0 13.8402 0 11.6V6.4Z" fill="#1C1C1E"/>
<path d="M6.46602 10.5186C7.86893 11.9192 9.57282 13 10.966 13C11.5922 13 12.1408 12.7819 12.5825 12.2973C12.8398 12.0113 13 11.6769 13 11.3473C13 11.105 12.9078 10.8724 12.6796 10.7076L11.1893 9.65105C10.9612 9.49596 10.7718 9.41842 10.5971 9.41842C10.3786 9.41842 10.1796 9.54443 9.95631 9.76252L9.61165 10.1018C9.55825 10.1551 9.49029 10.1793 9.42718 10.1793C9.35437 10.1793 9.28155 10.1502 9.23301 10.126C8.93204 9.96607 8.41748 9.52504 7.93689 9.05008C7.46117 8.57512 7.01942 8.06139 6.86408 7.7609C6.83981 7.70759 6.81068 7.63974 6.81068 7.56704C6.81068 7.50404 6.8301 7.44103 6.8835 7.38772L7.22816 7.03393C7.44175 6.81099 7.57282 6.61712 7.57282 6.39418C7.57282 6.21971 7.49029 6.03069 7.3301 5.80291L6.28641 4.33441C6.1165 4.10178 5.87864 4 5.6165 4C5.29612 4 4.96602 4.1454 4.67961 4.42165C4.20874 4.87237 4 5.42973 4 6.04523C4 7.43619 5.06311 9.12278 6.46602 10.5186Z" fill="white"/>
</svg>
