<svg width="18" height="18" viewBox="0 0 18 18" fill="none" xmlns="http://www.w3.org/2000/svg">
<path d="M0 6.4C0 4.15979 0 3.03969 0.435974 2.18404C0.819467 1.43139 1.43139 0.819467 2.18404 0.435974C3.03969 0 4.15979 0 6.4 0H11.6C13.8402 0 14.9603 0 15.816 0.435974C16.5686 0.819467 17.1805 1.43139 17.564 2.18404C18 3.03969 18 4.15979 18 6.4V11.6C18 13.8402 18 14.9603 17.564 15.816C17.1805 16.5686 16.5686 17.1805 15.816 17.564C14.9603 18 13.8402 18 11.6 18H6.4C4.15979 18 3.03969 18 2.18404 17.564C1.43139 17.1805 0.819467 16.5686 0.435974 15.816C0 14.9603 0 13.8402 0 11.6V6.4Z" fill="#1C1C1E"/>
<path d="M4 5V4.5C3.72386 4.5 3.5 4.72386 3.5 5H4ZM14 5H14.5C14.5 4.72386 14.2761 4.5 14 4.5V5ZM4 5.5H14V4.5H4V5.5ZM13.5 5V11H14.5V5H13.5ZM12 12.5H6V13.5H12V12.5ZM4.5 11V5H3.5V11H4.5ZM6 12.5C5.17157 12.5 4.5 11.8284 4.5 11H3.5C3.5 12.3807 4.61929 13.5 6 13.5V12.5ZM13.5 11C13.5 11.8284 12.8284 12.5 12 12.5V13.5C13.3807 13.5 14.5 12.3807 14.5 11H13.5Z" fill="white"/>
<path d="M4 6L9 9L14 6" stroke="white" stroke-linecap="round" stroke-linejoin="round"/>
</svg>
